<svg width="57" height="30" viewBox="0 0 57 30" fill="none" xmlns="http://www.w3.org/2000/svg">
<path d="M0.528409 30V0.90909H20.1307V5.98011H6.67898V12.9119H19.1222V17.983H6.67898V24.929H20.1875V30H0.528409ZM24.907 30V8.18182H30.674V12.0312H30.9297C31.3842 10.7528 32.1418 9.74432 33.2024 9.00568C34.263 8.26705 35.532 7.89773 37.0092 7.89773C38.5054 7.89773 39.7791 8.27178 40.8303 9.01989C41.8814 9.75852 42.5822 10.7623 42.9325 12.0312H43.1598C43.6049 10.7812 44.4098 9.7822 45.5746 9.03409C46.7488 8.27652 48.1361 7.89773 49.7365 7.89773C51.7725 7.89773 53.425 8.5464 54.6939 9.84375C55.9723 11.1316 56.6115 12.9593 56.6115 15.3267V30H50.5746V16.5199C50.5746 15.3078 50.2526 14.3987 49.6087 13.7926C48.9647 13.1866 48.1598 12.8835 47.1939 12.8835C46.0954 12.8835 45.2384 13.2339 44.6229 13.9347C44.0073 14.6259 43.6996 15.5398 43.6996 16.6761V30H37.8331V16.392C37.8331 15.322 37.5253 14.4697 36.9098 13.8352C36.3037 13.2008 35.5036 12.8835 34.5092 12.8835C33.8369 12.8835 33.2308 13.054 32.6911 13.3949C32.1607 13.7263 31.7393 14.1951 31.4268 14.8011C31.1143 15.3977 30.9581 16.0985 30.9581 16.9034V30H24.907Z" fill="black"/>
</svg>
